<?xml version="1.0" encoding="utf-8"?>
<!-- Generator: Adobe Illustrator 18.0.0, SVG Export Plug-In . SVG Version: 6.00 Build 0)  -->
<!DOCTYPE svg PUBLIC "-//W3C//DTD SVG 1.1//EN" "http://www.w3.org/Graphics/SVG/1.1/DTD/svg11.dtd">
<svg version="1.1" id="content" xmlns="http://www.w3.org/2000/svg" xmlns:xlink="http://www.w3.org/1999/xlink" x="0px" y="0px"
	 viewBox="321.7 184.3 198.4 226.8" enable-background="new 321.7 184.3 198.4 226.8" xml:space="preserve">
<g>
	<path fill="#FFFFFF" d="M378.1,402.4h75.3v-71.8h-75.3V402.4z M415.8,390.5c-13.2,0-23.9-10.7-23.9-23.9s10.7-23.9,23.9-23.9
		c13.2,0,23.9,10.7,23.9,23.9c0.2,13-10.2,23.7-23.2,23.9C416.3,390.5,416,390.5,415.8,390.5"/>
	<path fill="#FFFFFF" d="M428.2,366.5c0,6.6-5.4,12-12,12c-6.6,0-12-5.4-12-12c0-6.6,5.4-12,12-12
		C422.8,354.6,428.2,359.9,428.2,366.5C428.2,366.5,428.2,366.5,428.2,366.5 M425.1,312c0,0,0.4,1.3,0,1.8c-0.4,0.4-0.9,1.3-1.3,1.8
		c-0.4,0.4-0.9,0.4-1.3,0.9c-0.8,1.2-1.9,2.3-3.1,3.1c-0.9,0.4-3.5,1.8-4,3.5c-0.4,1.8-0.9,1.8-2.2,2.2c-1.3,0.4-2.4,1.1-3.1,2.2
		c-0.5,0.9-1.7,1.3-2.7,0.9c-1.6,0.2-3.1,0.8-4.4,1.8c-0.9,0.7-2.2,0.7-3.1,0c-1-0.4-2.1-0.4-3.1,0c-0.9,0.4-3.1-1.8-3.5-1.3
		c-0.4,0.4-1.3-0.4-1.8-1.3c-0.4-0.9-2.2-0.9-2.7-0.4c-0.4,0.4-3.1-2.2-4-3.1s-2.2,0-2.2-1.8s-2.2-1.3-2.7-2.2
		c-0.4-0.9-0.9-0.9-1.3-0.9c-0.4,0-1.8,0.9-2.7-1.3c-0.9-2.2-3.1-1.8-4-2.2c-0.9-0.4-0.9-3.1-3.1-4.4c-1.9-1-3.4-2.8-4-4.9
		c-1.6-2.4-3.5-4.5-5.8-6.2c-2.6-2.2-4.6-5.1-5.8-8.4c-0.4-2.7-7.1-6.2-8-10.2c-0.9-4-5.8-7.1-7.5-11.1c-2.7-6.1-4.6-12.5-5.8-19.1
		c-0.4-5.3-1.3-4-1.8-6.2c-0.7-2,0-4.2,1.8-5.3c1.8-1.3,4-1.3,3.5-3.1c-0.4-1.8-1.3-2.7,0-4c1.3-1.3-0.4-1.8,1.8-3.1
		c1.8-0.8,3.5-2.1,4.9-3.5c0-0.9-0.9-3.5,0.4-4.4c1.3-0.9,5.8-2.7,6.2-4.4c0.1-0.9,0.6-1.7,1.3-2.2c0.4-0.4-0.9-2.2,0-2.7
		c1.3-1.3,4.4,0.4,4.9-0.9c0.4-1.7,1.3-3.3,2.7-4.4c1.3-1.8,1.3-4,2.2-4.9s1.8-0.9,2.7-1.3s1.8-2.2,3.1-2.2c1.3,0,3.1-0.4,3.5-1.3
		c0.4-0.9,3.1-4,4-4s1.3,0.4,2.7,0.9c1.3,0.4,2.7,0.4,3.1,1.8c0.4,1.3,2.7,1.8,3.5,1.8s0.9,1.8,1.3,2.2c0.5,1.1,1.5,1.9,2.7,2.2
		c1.3,0.4,2.7,2.2,4,3.5c1.3,1.3,2.2,4,3.1,4.4c0.8,0.7,1.4,1.6,1.8,2.7c0.3,0.9,0.9,1.7,1.8,2.2c0.9,0,0.4,1.3,0.9,2.2
		c0.4,0.9,1.3,1.3,2.2,2.2c0.5,0.7,1,1.4,1.3,2.2c0.4,0.4,1.8,2.7,2.2,3.1c0.4,0.4,1.3,0.4,1.8,1.3c0.2,0.5,0.5,0.9,0.9,1.3
		c0.4,0,0.4,1.3,0.4,1.8s0.9,1.3,1.3,1.8c0.4,0.4,1.8,1.8,1.8,2.7s0.9,0.4,1.3,0.9s0.4,1.8,0.9,2.7s0.4,0.4,1.3,0.9
		c0.9,0.4,1.3,1.3,1.3,1.8c0.4,1.1,1.2,2,2.2,2.7c0.9,1.3,2.7,2.2,2.7,3.1c0,0.7,0.3,1.3,0.9,1.8c0.4,0.4,0.9,1.3,1.8,2.2
		c0.9,0.9,1.8,0.9,2.2,1.3c0.8,0.3,1.4,1,1.8,1.8c0,0.9,0.4,1.3,0.9,1.3s1.3,0,1.3,0.4c0.2,0.6,0.7,1.1,1.3,1.3
		c0.4,0.4,0.9,0,1.3,0.9s0.4,1.8,0.9,2.2c0.4,0.4,0.4,0,1.3,0.9c0.8,1,1.3,2.2,1.3,3.5c0,0.4,0,0.4,0.9,0.9l1.8,0.9
		c0.9,0.4,1.3,1.8,2.7,1.3c1.3-0.4,1.3-1.3,1.8-1.3c0.4,0,2.2-1.8,3.1-2.7c1.4-1.4,2.8-2.8,4.4-4c0.8-0.5,1.4-1.3,1.8-2.2
		c0.9-1,2-1.9,3.1-2.7c0.9-1.3,1.9-2.5,3.1-3.5c1-0.6,1.8-1.6,2.2-2.7c0.4,0,1.3-1.3,2.2-2.2s3.1-3.5,3.1-3.5s1.3-0.9,2.2-1.3
		s2.2,0.4,3.1,0c0.9-0.4,2.2-4.4,3.1-4.9s0.9-1.3,1.8-1.8l3.5-3.5c0.4-0.4,1.3-1.8,1.8-1.8c0.4,0,0.9-0.4,1.3-0.9s0.4-0.9,1.3-1.3
		s1.8-1.3,2.2-1.8s2.7-1.8,2.7-2.2c0.4-0.4,0.8-0.7,1.3-0.9c0.9-0.3,1.7-0.9,2.2-1.8c0-0.4,1.3-1.3,2.2-1.8c0.7-0.8,1.3-1.7,1.8-2.7
		c0.4-0.9,0.9-2.2,1.3-2.2c0.4,0,2.2-1.8,2.7-2.2c0.4-0.4-0.4-2.2,0.4-2.7c0.9-0.4,1.3-1.8,1.8-2.2c0.4-0.5,0.5-1.1,0.4-1.8
		c0.4-0.4,0.4-0.9,1.3-1.8c1.2-1.1,2.2-2.3,3.1-3.5c0.3-0.7,0.7-1.3,1.3-1.8c0.4-1.3,1.3-1.8,1.8-2.7s0.9-1.3,1.8-1.3s0,0.4,0,0.9
		c-0.5,0.5-1,1.1-1.3,1.8c0,0.4-0.9,1.3-1.8,2.2c-0.9,0.9-2.2,2.2-2.2,3.1s-2.2,2.2-2.2,2.7c-0.4,1.8-0.4,1.3-0.9,3.1
		c-0.4,1.9-1.2,3.7-2.2,5.3c-0.9,0.9-0.4,1.8-1.3,2.2c-0.9,0.5-1.7,1.3-2.2,2.2c-0.4,0.9-2.7,3.1-3.1,4s-1.3,2.2-1.8,2.2
		s-0.9,0.4-1.3,1.3c-0.4,0.9-0.9,0.4-1.3,1.3c-0.4,0.9-1.3,1.8-1.8,2.7c-1,1.1-2.2,2-3.5,2.7c-0.9,0.9-1.3,0.9-1.8,1.3
		c-0.4,0.4,0,0.9-0.9,1.3c-0.9,0.4-1.3,0.4-1.3,0.9c0,0.4,0.4,0-0.9,1.3c-1.3,1.3-2.7,2.7-3.1,3.5c-0.3,0.8-1,1.4-1.8,1.8
		c-0.9,0.4-1.3,1.3-1.8,1.8c-0.4,0.4-2.7,2.2-3.5,3.1c-0.9,0.9-0.9,1.3-1.3,1.8l-1.8,1.8c0,0-0.9,1.8-1.8,2.2
		c-0.8,0.3-1.4,1-1.8,1.8c-0.9,0.9-0.9,1.3-1.8,1.8s-1.3,1.3-1.8,1.8c-0.7,0.6-1.3,1.4-1.8,2.2c-0.4,0.9-0.4,1.3-1.3,1.8
		c-0.9,0.4-0.9,0.9-1.3,1.3c-0.4,0.4-0.4,1.8-1.3,2.2c-0.9,0.4-0.9,0.4-1.3,1.3c-0.4,0.9-1.8,2.2-2.2,3.1c-0.4,0.9,0,1.3-0.9,1.3
		s-0.9,0-0.9,0.4c0,0.4-0.9,1.3-1.8,2.2s-0.4,1.3-1.3,2.2c-0.9,0.9-0.9,0.4-1.3,1.3c-0.7,1-1.3,2-1.8,3.1c-0.9,1.3-1.8,1.3-2.2,2.7
		c-0.4,1.3-0.9,0.9-1.3,1.8c-0.4,0.9-2.2,2.2-2.7,3.5c-0.9,0.6-1.4,1.6-1.3,2.7c0,0.9,0.4,1.8-0.4,2.7c-0.9,0.9-3.1,0.4-3.1,1.8
		c-0.1,0.9,0,1.8,0.4,2.7c0.4,0.9,1.3,2.2,0.4,3.1s-1.3,1.8-2.2,1.8s-1.3-0.9-1.3,0s-0.4,0.4-0.4,1.3v2.2c0,0-0.4,0-0.4,1.3v1.8
		C426.2,309.4,425.4,310.6,425.1,312L425.1,312z"/>
</g>
</svg>
