<?xml version="1.0" encoding="utf-8"?>
<!-- Generator: Adobe Illustrator 24.3.0, SVG Export Plug-In . SVG Version: 6.00 Build 0)  -->
<svg version="1.2" baseProfile="tiny" id="圖層_1"
	 xmlns="http://www.w3.org/2000/svg" xmlns:xlink="http://www.w3.org/1999/xlink" x="0px" y="0px"
	 viewBox="0 0 1904.8848877 543.6333008" overflow="visible" xml:space="preserve">
<g>
	<path fill="#FFFFFF" d="M532.765686,501.4667969c-1.2839966,0-2.3731079-0.3209229-3.267395-0.9631958
		c-0.894165-0.6417236-1.4674683-1.4442139-1.7199707-2.4534912c-0.2518921-0.9625854-0.3779297-4.4483032-0.3779297-10.409729
		v-29.4412842h13.2069092v-15.4085083h-13.2069092v-25.7949219l-19.3984985,11.2811279v14.5137939h-8.8731689v15.4085083h8.8731689
		v31.8485718c0,6.8334351,0.2062988,11.3735352,0.6195068,13.6201172c0.5037842,3.1643066,1.4100342,5.6640015,2.7167969,7.5436401
		c1.3068237,1.8345947,3.3591919,3.3476562,6.1564331,4.539978c2.7976685,1.1466675,5.9385986,1.7427979,9.4237061,1.7427979
		c5.6866455,0,10.7772827-0.9631348,15.2711792-2.888916l-1.651123-14.9959106
		C537.1450195,500.8477783,534.5541992,501.4667969,532.765686,501.4667969z M613.109375,491.8361816l0.2063599-22.5622559
		c0-8.3916016-0.8595581-14.1473389-2.5795288-17.3115234c-1.7194824-3.118103-4.6887817-5.7089233-8.9078979-7.7498779
		c-4.2186279-2.0409546-10.638916-3.0724487-19.2601318-3.0724487c-9.4926758,0-16.6469727,1.6965942-21.4622803,5.0900269
		c-4.8148193,3.3939209-8.2086792,8.6212769-10.1799927,15.6837769l17.5405884,3.1642456
		c1.1923218-3.3933105,2.7515869-5.755127,4.6774292-7.1081543c1.9262695-1.3529663,4.6090088-2.0408936,8.0484619-2.0408936
		c5.0900269,0,8.5523071,0.8030396,10.3863525,2.3618164c1.8345947,1.6054077,2.7515869,4.2418823,2.7515869,7.9567261v1.9257812
		c-3.4851074,1.4674683-9.7446289,3.0496826-18.7791138,4.7462769c-6.6948853,1.2841187-11.8197021,2.7977905-15.3737183,4.4945068
		c-3.5540771,1.7421875-6.3170776,4.2186279-8.2890015,7.4290161c-1.9719849,3.2559814-2.9580078,6.9246216-2.9580078,11.052002
		c0,6.2366943,2.1669312,11.3956909,6.5006104,15.4768677c4.3337402,4.0818481,10.2609863,6.1221313,17.7817383,6.1221313
		c4.2647705,0,8.2770996-0.8024292,12.0373535-2.4072876c3.760437-1.6049194,7.291748-4.0129395,10.593811-7.2227173
		c0.1373901,0.3665161,0.3671265,1.123291,0.6879272,2.2700195c0.7334595,2.5218506,1.352478,4.4248657,1.8573608,5.7089844
		h19.1228027c-1.6966553-3.4851074-2.8547974-6.7410889-3.4736938-9.8135986
		C613.4194336,503.0032959,613.109375,498.256897,613.109375,491.8361816z M594.3303223,484.6140747
		c0,4.6312256-0.2518921,7.772644-0.7563477,9.4237061c-0.7340698,2.5219116-2.2699585,4.6546021-4.6089478,6.3973999
		c-3.1642456,2.2927856-6.4891968,3.4389038-9.9743042,3.4389038c-3.118042,0-5.6860962-0.9859009-7.7042236-2.9578857
		c-2.0175781-1.9719238-3.0263062-4.3103027-3.0263062-7.0158081c0-2.7515869,1.2612305-5.0222168,3.7831421-6.8106079
		c1.651062-1.0999146,5.1589966-2.2238159,10.5248413-3.3704834c5.3653564-1.1461792,9.2863159-2.1320801,11.762146-2.9578857
		V484.6140747z M359.5582886,426.2130737c-4.2191772-4.4481812-9.286377-7.5440674-15.2022095-9.2862549
		c-4.4020996-1.2841187-10.7995605-1.9264526-19.1916504-1.9264526h-37.2139282v100.8428345h38.3143921
		c7.5206909,0,13.5283203-0.7106934,18.0222168-2.1320801c6.0075684-1.9264526,10.7766724-4.6090088,14.3079834-8.0485229
		c4.6774292-4.5401001,8.2775879-10.4786987,10.7994995-17.815918c2.0637207-6.006958,3.0953369-13.1612549,3.0953369-21.4616699
		c0-9.4465942-1.0999146-17.3804932-3.3016357-23.8234863C366.9873047,436.1184692,363.7769165,430.661377,359.5582886,426.2130737z
		 M349.3776855,483.9716797c-1.3757935,4.517334-3.152771,7.749939-5.3310547,9.7218018
		c-2.1783447,1.9719849-4.9185181,3.3712158-8.2200317,4.1964111c-2.522522,0.6417847-6.6265869,0.9631958-12.3132935,0.9631958
		h-15.2017212v-66.7930908h9.1484985c8.300415,0,13.8720093,0.3209229,16.7153931,0.9631958
		c3.8065186,0.8251953,6.9474487,2.4074097,9.4237061,4.7462769c2.4769287,2.3384399,4.40271,5.5944214,5.7785034,9.7674561
		c1.3757935,4.173584,2.0637207,10.1577759,2.0637207,17.9537964
		C351.4414062,473.2868042,350.753479,479.4544678,349.3776855,483.9716797z M467.9674072,515.8432007h19.3295898V415.0003662
		h-19.3295898V515.8432007z M718.5610962,478.7666016h23.3190918v12.7949219
		c-3.0723877,2.3844604-6.7529907,4.4248657-11.0405884,6.0758667c-4.2874756,1.6967163-8.56427,2.522522-12.8283691,2.522522
		c-8.6219482,0-15.5921021-2.9813232-20.9118042-8.9883423c-5.3197021-5.9613647-7.9794922-14.9502563-7.9794922-26.9187012
		c0-11.0981445,2.6255493-19.46698,7.8763428-25.1075439c5.2507324-5.6411133,12.324646-8.4611206,21.2212524-8.4611206
		c5.8695679,0,10.7646484,1.4442139,14.685791,4.3109131c3.9210815,2.8656006,6.5924072,6.763855,8.0137939,11.7165527
		l20.2238159-3.7832031c-2.0181274-9.2635498-6.5462036-16.5090942-13.5859375-21.7825928
		c-7.0391846-5.2279053-16.8184814-7.8649902-29.3374634-7.8649902c-9.6306152,0-17.6786499,1.6738892-24.1450195,5.0217285
		c-8.4832764,4.3565063-14.9268799,10.6159668-19.3289795,18.7789917c-4.40271,8.1624756-6.6036987,17.4951172-6.6036987,27.996521
		c0,9.6761475,1.9718628,18.6411743,5.9157715,26.8731689c3.9439087,8.2313843,9.8363037,14.5598755,17.6785278,18.9854126
		c7.8415527,4.4248657,17.0362549,6.6264648,27.5838623,6.6264648c8.2998047,0,16.4976196-1.5820923,24.5917358-4.7008057
		c8.0935669-3.1407471,14.2732544-6.7871704,18.5379639-10.9139404V461.776001h-43.8865967V478.7666016z M181.3981934,415.0003662
		l-39.2778931,100.8428345h21.5993042l8.3232117-22.9058838h40.3097839l8.8048096,22.9058838h22.1495972l-40.3783875-100.8428345
		H181.3981934z M178.3026123,475.9465942l13.6197815-37.4207764l13.8954163,37.4207764H178.3026123z M443.2041016,451.9168091
		c-6.2828979-7.177124-14.8579712-10.7767334-25.7265015-10.7767334c-9.6762085,0-17.6784668,3.4389038-24.007019,10.2723389
		c-6.3284912,6.878479-9.4926758,16.3483887-9.4926758,28.4552612c0,10.1343994,2.4074097,18.5266113,7.2227173,25.1759033
		c6.0993042,8.300415,15.4996948,12.4506226,28.2027588,12.4506226c8.0251465,0,14.7092285-1.8339844,20.0516968-5.5488281
		c5.3425293-3.6685791,9.2521973-9.0571899,11.7280273-16.1192017l-19.2600708-3.2331543
		c-1.0550537,3.6685791-2.6143188,6.3284912-4.6780396,7.9795532c-2.0631104,1.651001-4.6083984,2.4763184-7.6353149,2.4763184
		c-4.4483032,0-8.1629639-1.5820923-11.1437988-4.769165c-2.9806519-3.1870117-4.539978-7.6586304-4.6772461-13.3909302H452.21521
		C452.4904785,470.076416,449.4863892,459.0933228,443.2041016,451.9168091z M404.1322021,473.0570679
		c-0.0455933-5.2734985,1.307373-9.4464722,4.059021-12.5189819c2.7515869-3.0725098,6.2366943-4.6090088,10.4558716-4.6090088
		c3.9432983,0,7.2911377,1.4675903,10.0427246,4.3799438c2.7515869,2.9116821,4.1962891,7.1536865,4.3336792,12.7480469H404.1322021
		z M1486.4952393,441.1400757c-4.8609619,0-9.286377,1.1461182-13.2758789,3.4389038
		c-3.989502,2.293396-7.1538086,5.2741089-9.4926758,8.942688v-10.7310791h-18.0222168v100.8427124h19.3289795v-36.8012085
		c3.6230469,3.8983154,7.0625,6.6499023,10.3413086,8.2548218c3.2788086,1.6048584,6.9475098,2.4072876,10.9831543,2.4072876
		c8.4838867,0,15.706543-3.3704834,21.6679688-10.1343994c5.9614258-6.7644043,8.942749-16.2570801,8.942749-28.4553223
		c0-11.8771973-2.9578857-21.1408081-8.8737793-27.7901001
		C1502.1789551,444.4649658,1494.979126,441.1400757,1486.4952393,441.1400757z M1492.8237305,496.7659912
		c-2.9807129,3.6002197-6.7183838,5.3887329-11.2122803,5.3887329c-4.6773682,0-8.644043-1.9492188-11.8999023-5.8931274
		c-3.2561035-3.8977051-4.8843994-9.9741821-4.8843994-18.1829224c0-7.1536865,1.5593262-12.5423584,4.6774902-16.2103882
		c3.1185303-3.6229858,7.0396729-5.4575806,11.7633057-5.4575806c4.539917,0,8.3459473,1.8573608,11.418335,5.5715942
		c3.0725098,3.7147827,4.6090088,9.4014893,4.6090088,17.0595703
		C1497.2952881,487.2504883,1495.8044434,493.1663818,1492.8237305,496.7659912z M1416.6757812,444.3961182
		c-3.7142334-2.1555176-8.2541504-3.2560425-13.6201172-3.2560425c-4.2185059,0-8.1853027,0.9631348-11.8999023,2.888916
		c-3.7148438,1.9257812-7.1765137,4.8381348-10.3869629,8.7359009c-2.2010498-3.8977661-5.0217285-6.8101196-8.4605713-8.7359009
		c-3.4395752-1.9257812-7.4979248-2.888916-12.1759033-2.888916c-8.8048096,0-16.3945312,3.874939-22.7686768,11.6248169v-9.9743042
		h-17.8157959v73.0526123h19.3291016v-35.4945068c0-7.0162964,0.5043945-12.0380249,1.536499-15.06427
		c1.0314941-3.0268555,2.7515869-5.3425293,5.1361084-6.9474487c2.3846436-1.6048584,5.0672607-2.4078979,8.0479736-2.4078979
		c2.4763184,0,4.425415,0.5043945,5.8702393,1.5137329c1.4442139,1.0087891,2.5219727,2.5446777,3.2098389,4.6083984
		c0.6878662,2.0636597,1.0316162,6.6494141,1.0316162,13.7575073v40.0344849h19.3295898v-35.0817871
		c0-6.87854,0.5272217-11.9001465,1.5820312-15.0870972c1.0549316-3.1871338,2.7744141-5.6177979,5.1590576-7.2689209
		c2.3845215-1.6505127,4.9298096-2.4763184,7.6357422-2.4763184c3.7142334,0,6.4659424,1.3757935,8.2543945,4.1274414
		c1.3295898,2.1092529,1.9946289,6.7872925,1.9946289,14.0326538v41.7540283h19.3291016v-46.706604
		c0-6.9708252-0.6645508-12.0147095-1.994751-15.1333008
		C1423.1650391,449.7841187,1420.390625,446.5971069,1416.6757812,444.3961182z M1591.3969727,491.8361816l0.2062988-22.5622559
		c0-8.3916016-0.8485107-14.1473389-2.5908203-17.3115234c-1.6972656-3.118103-4.6779785-5.7089233-8.8966064-7.7498779
		c-4.2191162-2.0409546-10.6392822-3.0724487-19.2612305-3.0724487c-9.4925537,0-16.6463623,1.6965942-21.4610596,5.0900269
		c-4.8153076,3.3939209-8.2092285,8.6212769-10.1812744,15.6837769l17.5412598,3.1642456
		c1.1922607-3.3933105,2.7515869-5.755127,4.6773682-7.1081543c1.9263916-1.3529663,4.6090088-2.0408936,8.0484619-2.0408936
		c5.0900879,0,8.5523682,0.8030396,10.3869629,2.3618164c1.8339844,1.6054077,2.7515869,4.2418823,2.7515869,7.9567261v1.9257812
		c-3.4855957,1.4674683-9.7451172,3.0496826-18.7790527,4.7462769c-6.6954346,1.2841187-11.831665,2.7977905-15.362915,4.4945068
		c-3.5769043,1.7421875-6.3284912,4.2186279-8.300415,7.4290161c-1.9719238,3.2559814-2.9578857,6.9246216-2.9578857,11.052002
		c0,6.2366943,2.1782227,11.3956909,6.4891357,15.4768677c4.3565674,4.0818481,10.2723389,6.1221313,17.7930908,6.1221313
		c4.2647705,0,8.2775879-0.8024292,12.0380859-2.4072876c3.7602539-1.6049194,7.2915039-4.0129395,10.5931396-7.2227173
		c0.1373291,0.3665161,0.3664551,1.123291,0.6878662,2.2700195c0.7335205,2.5218506,1.3530273,4.4248657,1.8568115,5.7089844
		h19.123291c-1.6966553-3.4851074-2.8433838-6.7410889-3.4851074-9.8135986
		C1591.7178955,503.0032959,1591.3969727,498.256897,1591.3969727,491.8361816z M1572.6179199,484.6140747
		c0,4.6312256-0.2525635,7.772644-0.7568359,9.4237061c-0.7341309,2.5219116-2.2700195,4.6546021-4.6090088,6.3973999
		c-3.1643066,2.2927856-6.4885254,3.4389038-9.9742432,3.4389038c-3.1181641,0-5.6862793-0.9859009-7.7043457-2.9578857
		c-2.0174561-1.9719238-3.0262451-4.3103027-3.0262451-7.0158081c0-2.7515869,1.2606201-5.0222168,3.7832031-6.8106079
		c1.651001-1.0999146,5.1589355-2.2238159,10.5241699-3.3704834c5.3658447-1.1461792,9.286377-2.1320801,11.7633057-2.9578857
		V484.6140747z M1672.2684326,449.3253784c-1.8345947-2.3845825-4.4943848-4.3331909-8.0257568-5.8924561
		c-3.53125-1.5132446-7.4289551-2.2928467-11.6937256-2.2928467c-9.6762695,0-17.7012939,4.1274414-24.0759277,12.3815918
		v-10.7310791h-17.9533691v73.0526123h19.3291016v-33.0864868c0-8.163147,0.4816895-13.7575073,1.4675293-16.7844238
		c0.9859619-3.0267944,2.8206787-5.4569702,5.4804688-7.2915649c2.6599121-1.8346558,5.6633301-2.7516479,9.0111084-2.7516479
		c2.6136475,0,4.8609619,0.642334,6.6955566,1.9263306c1.8796387,1.2841187,3.2098389,3.0952759,4.0350342,5.3880615
		c0.8258057,2.3390503,1.2384033,7.4290161,1.2384033,15.3168335v37.2828979h19.3291016v-45.3997803
		c0-5.640625-0.3664551-9.9743042-1.0771484-13.0006104
		C1675.3175049,454.4158936,1674.0567627,451.7105103,1672.2684326,449.3253784z M1268.0948486,441.1400757
		c-7.1542969,0-13.6428223,1.5820923-19.4440918,4.7463379c-5.8013916,3.1643066-10.2723389,7.7498779-13.4366455,13.7575073
		c-3.1641846,6.0075684-4.7463379,12.2208862-4.7463379,18.6416626c0,8.3916016,1.5821533,15.4996948,4.7463379,21.3699341
		c3.1643066,5.8236084,7.7733154,10.2723999,13.8492432,13.2987061c6.0759277,3.0268555,12.4735107,4.539978,19.1689453,4.539978
		c10.8222656,0,19.7878418-3.6223755,26.9187012-10.9140015c7.1308594-7.2460938,10.7077637-16.4172974,10.7077637-27.4694214
		c0-10.9602051-3.5306396-20.0174561-10.5931396-27.1939697
		C1288.2036133,444.7396851,1279.1463623,441.1400757,1268.0948486,441.1400757z M1280.8430176,495.963623
		c-3.4161377,3.8520508-7.6352539,5.7783813-12.6796875,5.7783813s-9.286377-1.9263306-12.7259521-5.7783813
		c-3.4394531-3.8522339-5.1589355-9.401001-5.1589355-16.6464233c0-7.2460938,1.7194824-12.7949219,5.1589355-16.6464844
		c3.4395752-3.8527222,7.6815186-5.7784424,12.7259521-5.7784424s9.2635498,1.9257202,12.6796875,5.7784424
		c3.416748,3.8515625,5.1362305,9.3547974,5.1362305,16.5084839
		C1285.979248,486.5169678,1284.2597656,492.1113892,1280.8430176,495.963623z M1742.6611328,442.7905884l-17.0595703,51.8660889
		l-17.47229-51.8660889h-20.5675049l27.7902832,73.2593994c-1.1461182,4.0812988-2.7972412,7.4285278-4.9527588,10.0654907
		c-2.1549072,2.637146-5.4797363,3.9667358-9.9742432,3.9667358c-2.4301758,0-5.1589355-0.2980957-8.1853027-0.8942261
		l1.7194824,15.1337891c3.5769043,0.7791138,7.2226562,1.1689453,10.9375,1.1689453
		c3.6685791,0,6.9473877-0.3898315,9.8591309-1.1689453c2.9123535-0.7796021,5.3658447-1.8806763,7.3833008-3.2564697
		c1.9720459-1.4213867,3.7376709-3.2327271,5.2736816-5.4799194c1.536499-2.2471924,3.1641846-5.5031738,4.8608398-9.7680054
		l4.6090088-12.7252808l25.7954102-70.3015137H1742.6611328z M1048.2491455,441.1400757
		c-4.8613281,0-9.2862549,1.1461182-13.2757568,3.4389038c-3.9901123,2.293396-7.1542969,5.2741089-9.4926758,8.942688v-10.7310791
		h-18.0228271v100.8427124h19.3291016v-36.8012085c3.6230469,3.8983154,7.0625,6.6499023,10.3413086,8.2548218
		c3.2788086,1.6048584,6.947876,2.4072876,10.9830322,2.4072876c8.4838867,0,15.706543-3.3704834,21.6685791-10.1343994
		c5.9615479-6.7644043,8.9421387-16.2570801,8.9421387-28.4553223c0-11.8771973-2.9578857-21.1408081-8.8737793-27.7901001
		C1063.9324951,444.4649658,1056.7331543,441.1400757,1048.2491455,441.1400757z M1054.5777588,496.7659912
		c-2.9807129,3.6002197-6.7183838,5.3887329-11.2127686,5.3887329c-4.6773682,0-8.644043-1.9492188-11.9000244-5.8931274
		c-3.2561035-3.8977051-4.8842773-9.9741821-4.8842773-18.1829224c0-7.1536865,1.5593262-12.5423584,4.6778564-16.2103882
		c3.1186523-3.6229858,7.0393066-5.4575806,11.7628174-5.4575806c4.539917,0,8.3459473,1.8573608,11.418457,5.5715942
		c3.072998,3.7147827,4.6090088,9.4014893,4.6090088,17.0595703
		C1059.0488281,487.2504883,1057.5583496,493.1663818,1054.5777588,496.7659912z M869.0683594,441.1400757
		c-7.1536865,0-13.6308594,1.5820923-19.4321289,4.7463379c-5.8012695,3.1643066-10.2836914,7.7498779-13.447998,13.7575073
		c-3.1641846,6.0075684-4.7463379,12.2208862-4.7463379,18.6416626c0,8.3916016,1.5821533,15.4996948,4.7463379,21.3699341
		c3.1643066,5.8236084,7.7845459,10.2723999,13.8605957,13.2987061c6.0759277,3.0268555,12.4620361,4.539978,19.1574707,4.539978
		c10.8223877,0,19.7993164-3.6223755,26.9301758-10.9140015c7.1309814-7.2460938,10.6964111-16.4172974,10.6964111-27.4694214
		c0-10.9602051-3.5306396-20.0174561-10.5932617-27.1939697
		C889.1777344,444.7396851,880.1203613,441.1400757,869.0683594,441.1400757z M881.8284912,495.963623
		c-3.4161377,3.8520508-7.6467285,5.7783813-12.69104,5.7783813c-5.0444336,0-9.286499-1.9263306-12.7259521-5.7783813
		c-3.4394531-3.8522339-5.1589355-9.401001-5.1589355-16.6464233c0-7.2460938,1.7194824-12.7949219,5.1589355-16.6464844
		c3.4394531-3.8527222,7.6815186-5.7784424,12.7259521-5.7784424c5.0443115,0,9.2749023,1.9257202,12.69104,5.7784424
		c3.416748,3.8515625,5.1247559,9.3547974,5.1247559,16.5084839
		C886.9532471,486.5169678,885.2452393,492.1113892,881.8284912,495.963623z M1189.4700928,495.0003662
		c-3.8977051,3.4395142-8.5522461,5.1595459-13.9637451,5.1595459c-7.3371582,0-13.2991943-2.7059937-17.8848877-8.1174316
		c-4.5855713-5.4108887-6.8789062-14.4909668-6.8789062-27.2396851c0-12.0145874,2.3161621-20.7047729,6.9707031-26.0701294
		c4.6546631-5.3658447,10.7312012-8.0484619,18.2056885-8.0484619c5.411499,0,9.9971924,1.5131836,13.7803955,4.539978
		c3.7836914,3.0263062,6.2827148,7.1538086,7.4750977,12.3817139l20.1549072-4.8153076
		c-2.2928467-8.0706787-5.7322998-14.2619019-10.3179932-18.5728149
		c-7.7042236-7.2909546-17.7247314-10.9368896-30.0603027-10.9368896c-14.125,0-25.5206299,4.6546021-34.1875,13.9182129
		c-8.6674805,9.3092041-13.0010986,22.3331299-13.0010986,39.1168823c0,15.8673096,4.3109131,28.3869019,12.9321289,37.5125122
		c8.6213379,9.1713257,19.6276855,13.7346802,33.0180664,13.7346802c10.8223877,0,19.7423096-2.65979,26.7814941-8.0022583
		c7.0391846-5.3425293,12.0836182-13.5284424,15.1104736-24.5342407l-19.7423096-6.2600708
		C1196.1656494,486.1500244,1193.3684082,491.5615234,1189.4700928,495.0003662z M968.6618652,473.607605
		c0,10.4558716-0.4815674,17.0134888-1.4447021,19.7194824c-0.9631348,2.6593018-2.751709,4.9298096-5.3653564,6.7410889
		c-2.6142578,1.8112183-5.5716553,2.7054443-8.8623047,2.7054443c-2.8890381,0-5.2734375-0.6651001-7.1536865-2.0175171
		c-1.880249-1.3530273-3.1756592-3.1876221-3.8869629-5.5032349c-0.7106934-2.3155518-1.0657959-8.6212769-1.0657959-18.8936768
		v-33.5686035h-19.3295898v46.2255859c0,6.8790283,0.87146,12.2671509,2.6142578,16.1654053
		c1.7423096,3.8977051,4.5628662,6.9246216,8.4605713,9.0794067c3.8983154,2.1555176,8.300415,3.2332153,13.2075195,3.2332153
		c4.8146973,0,9.3780518-1.123291,13.7113037-3.3704834c4.3337402-2.2471924,7.8306885-5.3197021,10.4899902-9.2174072v10.9368896
		h17.9537354v-73.0526123h-19.3289795V473.607605z M806.5058594,443.479126
		c-2.4530029,1.5586548-5.2159424,4.7918701-8.2883301,9.6989746v-10.3875122h-17.9539795v73.0526123h19.3291016v-22.5623169
		c0-12.4271851,0.5391846-20.590271,1.6169434-24.4879761c1.0777588-3.8983154,2.5567627-6.5809326,4.4367676-8.0712891
		c1.880249-1.4904175,4.1730957-2.2471924,6.8791504-2.2471924c2.7971191,0,5.8234863,1.0548706,9.0793457,3.1641846
		l5.9848633-16.8527222c-4.0817871-2.4306641-8.3232422-3.645813-12.7258301-3.645813
		C811.7458496,441.1400757,808.9593506,441.9196777,806.5058594,443.479126z"/>
	<path fill="#FFFFFF" d="M705.4299927,4.6539917l-67.3538818,207.4338074L570.7279053,4.6539917h-95.5321045L590.453125,305.5881958
		h95.2454834L800.949707,4.6539917H705.4299927z M162.8739014,212.0884094L95.5194092,4.6539917H0l115.2503052,300.9342041
		h95.2463074L325.7542114,4.6539917h-95.5321045L162.8739014,212.0884094z M352.3875122,305.5881958H448.5625V4.6539917h-96.1749878
		V305.5881958z M1338.6848145,305.5881958h209.5294189v-68.2532043h-209.5294189V305.5881958z M1117.3134766,72.9072876
		l60.723877-0.0005798v232.681488h96.1751709V72.9067078h274.3363037V4.6539917h-431.2353516V72.9072876z M1789.9307861,155.35849
		l0.9545898-1.3928833l101.9033203-149.311615h-99.5979004l-96.1818848,140.9353943V4.6539917h-96.1756592v300.9342041h96.1756592
		V164.6528931l96.1882324,140.9353027h111.6877441L1789.9307861,155.35849z M1338.6848145,189.2474976h209.5294189v-68.2532959
		h-209.5294189V189.2474976z M952.4394531,0c-85.6706543,0-155.1207275,69.4501038-155.1207275,155.1213989
		c0,85.6701965,69.4500732,155.1203003,155.1207275,155.1203003c85.6708984,0,155.1208496-69.4501038,155.1208496-155.1203003
		C1107.5603027,69.4501038,1038.1103516,0,952.4394531,0z M952.4394531,227.5384827
		c-39.9949951,0-72.4176025-32.421875-72.4176025-72.4170837c0-39.995697,32.4226074-72.4182129,72.4176025-72.4182129
		c39.9952393,0,72.4177246,32.4225159,72.4177246,72.4182129
		C1024.8571777,195.1166077,992.4346924,227.5384827,952.4394531,227.5384827z"/>
</g>
</svg>
